HIERARCHY
ROOT joint_0
{
	OFFSET 0.000000 0.000000 0.000000
	CHANNELS 6 Xposition Yposition Zposition Zrotation Yrotation Xrotation 
	JOINT joint_1
	{
		OFFSET 8.185791 -2.713684 100.414917
		CHANNELS 3 Zrotation Yrotation Xrotation
		JOINT joint_2
		{
			OFFSET -4.376465 -1.111145 91.934082
			CHANNELS 3 Zrotation Yrotation Xrotation
			JOINT joint_3
			{
				OFFSET -6.985840 -1.054016 91.669922
				CHANNELS 3 Zrotation Yrotation Xrotation
				JOINT joint_4
				{
					OFFSET 0.150391 -4.451904 123.526001
					CHANNELS 3 Zrotation Yrotation Xrotation
					JOINT joint_5
					{
						OFFSET 19.754150 -8.123901 80.916992
						CHANNELS 3 Zrotation Yrotation Xrotation
						End Site
						{
							OFFSET 0.000000 0.000000 0.000000
						}
					}
				}
				JOINT joint_6
				{
					OFFSET -6.477539 -28.517334 68.237061
					CHANNELS 3 Zrotation Yrotation Xrotation
					JOINT joint_7
					{
						OFFSET -20.564453 -115.426208 -21.139038
						CHANNELS 3 Zrotation Yrotation Xrotation
						JOINT joint_8
						{
							OFFSET 18.981934 -19.826172 -267.898926
							CHANNELS 3 Zrotation Yrotation Xrotation
							JOINT joint_9
							{
								OFFSET 11.562744 -19.325867 -235.478027
								CHANNELS 3 Zrotation Yrotation Xrotation
								End Site
								{
									OFFSET 0.000000 0.000000 0.000000
								}
							}
						}
					}
				}
				JOINT joint_10
				{
					OFFSET 7.033936 23.504700 70.088989
					CHANNELS 3 Zrotation Yrotation Xrotation
					JOINT joint_11
					{
						OFFSET 36.629639 112.486816 -14.036987
						CHANNELS 3 Zrotation Yrotation Xrotation
						JOINT joint_12
						{
							OFFSET 41.355225 -7.048523 -266.019897
							CHANNELS 3 Zrotation Yrotation Xrotation
							JOINT joint_13
							{
								OFFSET 5.858887 29.785156 -234.603027
								CHANNELS 3 Zrotation Yrotation Xrotation
								End Site
								{
									OFFSET 0.000000 0.000000 0.000000
								}
							}
						}
					}
				}
			}
		}
	}
	JOINT joint_14
	{
		OFFSET -8.917725 -79.985535 -99.035034
		CHANNELS 3 Zrotation Yrotation Xrotation
		JOINT joint_15
		{
			OFFSET -32.739502 -31.478882 -502.570984
			CHANNELS 3 Zrotation Yrotation Xrotation
			JOINT joint_16
			{
				OFFSET 7.393066 -29.352966 -399.008011
				CHANNELS 3 Zrotation Yrotation Xrotation
				JOINT joint_17
				{
					OFFSET 178.013916 -26.060303 -71.875002
					CHANNELS 3 Zrotation Yrotation Xrotation
					End Site
					{
						OFFSET 0.000000 0.000000 0.000000
					}
				}
			}
		}
	}
	JOINT joint_18
	{
		OFFSET 1.900879 81.159851 -98.481018
		CHANNELS 3 Zrotation Yrotation Xrotation
		JOINT joint_19
		{
			OFFSET -15.120850 31.602051 -503.400024
			CHANNELS 3 Zrotation Yrotation Xrotation
			JOINT joint_20
			{
				OFFSET -16.653076 23.887695 -399.091988
				CHANNELS 3 Zrotation Yrotation Xrotation
				JOINT joint_21
				{
					OFFSET 179.618164 -1.217651 -72.592001
					CHANNELS 3 Zrotation Yrotation Xrotation
					End Site
					{
						OFFSET 0.000000 0.000000 0.000000
					}
				}
			}
		}
	}
}
MOTION
Frames: 10
Frame Time: 0.016667
-3305.230713 786.958008 1096.793945 4.033359 -0.996143 0.565242 2.002046 -0.648871 -2.352320 2.161783 -0.002962 0.584692 2.075781 -0.102605 -0.530964 0.228690 1.765800 -0.241683 0.000000 0.000000 0.000000 -0.831407 -0.390836 0.920380 0.296891 -1.119486 3.905835 -0.288019 2.178283 -1.504217 0.000000 0.000000 0.000000 -0.622808 3.482390 -0.979328 -0.125725 2.510187 2.204417 -0.477211 -3.033242 -1.418164 0.000000 0.000000 0.000000 -0.669670 4.617797 0.503017 -0.425685 -0.333694 1.639785 -0.295661 -2.599310 -0.499169 0.000000 0.000000 0.000000 -2.061951 0.930700 -2.281941 -1.959810 3.065242 -1.191940 -2.283388 -2.110983 -0.933485 0.000000 0.000000 0.000000 
-3305.133301 787.207214 1096.762939 3.992764 -0.975884 0.559919 1.986457 -0.686869 -2.339483 2.145914 0.001951 0.580076 2.060369 -0.108295 -0.527969 0.229266 1.751228 -0.249331 0.000000 0.000000 0.000000 -0.823166 -0.370749 0.931740 0.298689 -1.102251 3.939477 -0.287528 2.181013 -1.497503 0.000000 0.000000 0.000000 -0.590918 3.500492 -0.965832 -0.110983 2.530428 2.203683 -0.466750 -2.960807 -1.440340 0.000000 0.000000 0.000000 -0.651924 4.581100 0.481221 -0.415332 -0.298321 1.661324 -0.282503 -2.605287 -0.494757 0.000000 0.000000 0.000000 -2.047853 0.911364 -2.284511 -1.943308 3.077472 -1.206217 -2.268041 -2.102345 -0.927218 0.000000 0.000000 0.000000 
-3304.985352 787.485779 1096.729004 3.938119 -0.941619 0.555550 1.970581 -0.735166 -2.323399 2.129662 0.007040 0.574117 2.044676 -0.114206 -0.524851 0.230237 1.737105 -0.258563 0.000000 0.000000 0.000000 -0.820754 -0.350824 0.942201 0.300534 -1.085709 3.968995 -0.286469 2.180155 -1.488878 0.000000 0.000000 0.000000 -0.541508 3.515484 -0.935315 -0.096527 2.555205 2.189751 -0.457049 -2.888949 -1.480700 0.000000 0.000000 0.000000 -0.628344 4.528761 0.452571 -0.401445 -0.257778 1.690223 -0.265113 -2.616886 -0.489468 0.000000 0.000000 0.000000 -2.029587 0.883127 -2.287280 -1.922289 3.084596 -1.224312 -2.248041 -2.092191 -0.919063 0.000000 0.000000 0.000000 
-3304.793945 787.787048 1096.692993 3.871220 -0.895842 0.552217 1.954869 -0.791608 -2.305869 2.113562 0.011427 0.567430 2.029266 -0.120059 -0.520812 0.231791 1.724368 -0.269770 0.000000 0.000000 0.000000 -0.822511 -0.330278 0.951645 0.302422 -1.069026 3.995726 -0.284889 2.175595 -1.478832 0.000000 0.000000 0.000000 -0.477706 3.528533 -0.890649 -0.082401 2.583954 2.166219 -0.448554 -2.820713 -1.538699 0.000000 0.000000 0.000000 -0.599664 4.463663 0.418388 -0.384252 -0.213438 1.724400 -0.243932 -2.632132 -0.483189 0.000000 0.000000 0.000000 -2.007724 0.847486 -2.290451 -1.897359 3.087890 -1.245768 -2.224005 -2.079972 -0.909267 0.000000 0.000000 0.000000 
-3304.488281 788.111267 1096.644043 3.786220 -0.831625 0.548230 1.930090 -0.853343 -2.284580 2.088156 0.017584 0.559012 2.004716 -0.127599 -0.515788 0.234415 1.703751 -0.288328 0.000000 0.000000 0.000000 -0.819427 -0.312416 0.957066 0.305148 -1.055638 4.025650 -0.282926 2.168699 -1.469643 0.000000 0.000000 0.000000 -0.412438 3.538980 -0.840857 -0.065252 2.616966 2.127340 -0.432724 -2.708956 -1.577713 0.000000 0.000000 0.000000 -0.564459 4.382184 0.381508 -0.362333 -0.164936 1.762393 -0.216948 -2.658506 -0.476205 0.000000 0.000000 0.000000 -1.979613 0.803019 -2.292922 -1.865919 3.085400 -1.269301 -2.193532 -2.071227 -0.896898 0.000000 0.000000 0.000000 
-3304.052490 788.456604 1096.577026 3.682016 -0.751422 0.541418 1.893974 -0.916500 -2.261977 2.051372 0.024432 0.552078 1.968778 -0.134356 -0.509499 0.238496 1.674535 -0.316021 0.000000 0.000000 0.000000 -0.800656 -0.299644 0.956853 0.308812 -1.046789 4.061703 -0.281167 2.164421 -1.462510 0.000000 0.000000 0.000000 -0.353454 3.544758 -0.798496 -0.043217 2.648943 2.074032 -0.404687 -2.526782 -1.570161 0.000000 0.000000 0.000000 -0.523113 4.287291 0.346200 -0.335524 -0.110670 1.801425 -0.183534 -2.700296 -0.468894 0.000000 0.000000 0.000000 -1.945128 0.753877 -2.293168 -1.828130 3.076850 -1.293551 -2.156788 -2.067340 -0.882032 0.000000 0.000000 0.000000 
-3303.513184 788.825562 1096.494019 3.563673 -0.658167 0.531977 1.850786 -0.982638 -2.236048 2.007309 0.032053 0.544518 1.925564 -0.140447 -0.503767 0.242941 1.639298 -0.347465 0.000000 0.000000 0.000000 -0.775722 -0.289988 0.953796 0.313118 -1.041298 4.101722 -0.279581 2.162427 -1.456618 0.000000 0.000000 0.000000 -0.301206 3.545824 -0.758135 -0.017869 2.680789 2.008422 -0.368065 -2.292486 -1.531046 0.000000 0.000000 0.000000 -0.477182 4.181054 0.311637 -0.305318 -0.050772 1.842212 -0.145344 -2.755661 -0.461651 0.000000 0.000000 0.000000 -1.905550 0.700653 -2.291505 -1.785257 3.063029 -1.318822 -2.115023 -2.067518 -0.865169 0.000000 0.000000 0.000000 
-3302.734131 789.221741 1096.396973 3.400102 -0.519276 0.525826 1.781243 -1.058308 -2.202171 1.936353 0.045272 0.533392 1.855820 -0.149677 -0.495545 0.249721 1.571254 -0.401065 0.000000 0.000000 0.000000 -0.733824 -0.289159 0.942927 0.319507 -1.043932 4.144425 -0.275992 2.144273 -1.452424 0.000000 0.000000 0.000000 -0.230507 3.546736 -0.698294 0.013046 2.727463 1.911571 -0.319954 -1.980706 -1.478638 0.000000 0.000000 0.000000 -0.413258 4.034924 0.264439 -0.261374 0.010049 1.893671 -0.092604 -2.822518 -0.450241 0.000000 0.000000 0.000000 -1.851887 0.620966 -2.293355 -1.727330 3.038987 -1.346430 -2.058502 -2.076466 -0.842418 0.000000 0.000000 0.000000 
-3301.667480 789.674805 1096.281006 3.186425 -0.323103 0.525069 1.673045 -1.144248 -2.154141 1.825658 0.066980 0.514344 1.747406 -0.164949 -0.479024 0.260153 1.459463 -0.486732 0.000000 0.000000 0.000000 -0.661376 -0.302289 0.921897 0.328045 -1.056734 4.183937 -0.269979 2.105071 -1.451368 0.000000 0.000000 0.000000 -0.113642 3.543446 -0.613152 0.049756 2.791815 1.757518 -0.256319 -1.559080 -1.410271 0.000000 0.000000 0.000000 -0.327338 3.842508 0.197228 -0.200604 0.064020 1.963914 -0.022700 -2.903788 -0.434043 0.000000 0.000000 0.000000 -1.782292 0.507554 -2.303260 -1.652463 3.000204 -1.376651 -1.985169 -2.095082 -0.812954 0.000000 0.000000 0.000000 
-3300.368652 790.184631 1096.145996 2.933202 -0.082890 0.526919 1.533744 -1.236750 -2.093287 1.682848 0.095906 0.487439 1.607900 -0.185359 -0.455037 0.272571 1.313571 -0.594186 0.000000 0.000000 0.000000 -0.559872 -0.327864 0.894844 0.337703 -1.076900 4.217002 -0.262205 2.050688 -1.449442 0.000000 0.000000 0.000000 0.042550 3.533758 -0.511226 0.091229 2.866676 1.554840 -0.179384 -1.036370 -1.324283 0.000000 0.000000 0.000000 -0.223857 3.615100 0.114581 -0.126305 0.112986 2.050226 0.061138 -2.998300 -0.414186 0.000000 0.000000 0.000000 -1.699919 0.369601 -2.319146 -1.564219 2.948675 -1.409018 -1.898479 -2.121076 -0.778157 0.000000 0.000000 0.000000 
